<svg width="29" height="26" viewBox="0 0 29 26" fill="none" xmlns="http://www.w3.org/2000/svg">
<path fill-rule="evenodd" clip-rule="evenodd" d="M13.2929 0.707108C12.9024 0.316584 12.2692 0.316584 11.8787 0.707108L0.564971 12.0208C0.518438 12.0673 0.47745 12.1173 0.442006 12.1699C0.389404 12.2054 0.339426 12.2464 0.292893 12.2929C-0.0976312 12.6834 -0.0976309 13.3166 0.292893 13.7071L11.6066 25.0208C11.9971 25.4113 12.6303 25.4113 13.0208 25.0208C13.4113 24.6303 13.4113 23.9971 13.0208 23.6066L3.41421 14H27.5858C28.1381 14 28.5858 13.5523 28.5858 13C28.5858 12.4477 28.1381 12 27.5858 12H3.41421L13.2929 2.12132C13.6834 1.7308 13.6834 1.09763 13.2929 0.707108Z" fill="#464646"/>
</svg>
