<svg width="20" height="30" viewBox="0 0 20 30" fill="none" xmlns="http://www.w3.org/2000/svg">
<g id="Location">
<path id="Fill 1" fill-rule="evenodd" clip-rule="evenodd" d="M9.74249 11.9851C8.52949 11.9851 7.50049 10.9921 7.50049 9.74212C7.50049 8.52912 8.49249 7.50012 9.74249 7.50012C10.9565 7.50012 11.9855 8.49212 11.9855 9.74212C11.9855 10.9921 10.9565 11.9851 9.74249 11.9851ZM9.74249 5.84512C7.61049 5.84512 5.84649 7.61012 5.84649 9.74212C5.84649 11.8751 7.61049 13.6401 9.74249 13.6401C11.8755 13.6401 13.6395 11.8751 13.6395 9.74212C13.6395 7.61012 11.8755 5.84512 9.74249 5.84512Z" fill="#464646"/>
<g id="Group 5">
<path id="Fill 3" fill-rule="evenodd" clip-rule="evenodd" d="M9.74249 27.3528L2.57349 13.4558C1.98549 12.3158 1.69049 11.0658 1.69049 9.74282C1.69049 5.29382 5.33149 1.65482 9.77949 1.65482C14.2275 1.65482 17.8675 5.29382 17.8675 9.74282C17.8675 11.0298 17.5735 12.2798 16.9855 13.4188L9.74249 27.3528ZM19.4855 9.74282C19.4855 4.37482 15.1105 -0.000183105 9.74249 -0.000183105C4.37549 -0.000183105 0.000488281 4.37482 0.000488281 9.74282C0.000488281 11.2868 0.367488 12.8678 1.10249 14.2278L9.00749 29.5588C9.15449 29.8528 9.44849 29.9998 9.74249 29.9998C10.0365 29.9998 10.3315 29.8158 10.4775 29.5588L18.4195 14.2278C19.1175 12.8308 19.4855 11.2868 19.4855 9.74282Z" fill="#464646"/>
</g>
</g>
</svg>
