<svg width="52" height="29" viewBox="0 0 52 29" fill="none" xmlns="http://www.w3.org/2000/svg">
<g clip-path="url(#clip0)">
<path d="M6.26685 8.45835C6.26685 7.14393 6.6519 5.85902 7.3733 4.76612C8.0947 3.67322 9.12006 2.82141 10.3197 2.3184C11.5194 1.81539 12.8394 1.68378 14.113 1.94021C15.3865 2.19664 16.5563 2.8296 17.4745 3.75903C18.3927 4.68847 19.0179 5.87264 19.2713 7.16181C19.5246 8.45098 19.3946 9.78723 18.8977 11.0016C18.4007 12.216 17.5593 13.2539 16.4796 13.9842C15.4 14.7144 14.1306 15.1042 12.8321 15.1042C14.233 15.1077 15.624 15.3424 16.9504 15.799C18.556 14.8784 19.8153 13.4456 20.532 11.7243C21.2487 10.003 21.3823 8.09 20.9121 6.28374C20.4418 4.47749 19.3941 2.87962 17.9325 1.73945C16.4708 0.599282 14.6774 -0.019043 12.8321 -0.019043C10.9868 -0.019043 9.19346 0.599282 7.73181 1.73945C6.27016 2.87962 5.22247 4.47749 4.75221 6.28374C4.28195 8.09 4.41558 10.003 5.13225 11.7243C5.84892 13.4456 7.10831 14.8784 8.71391 15.799C10.0402 15.3424 11.4312 15.1077 12.8321 15.1042C11.0909 15.1042 9.42101 14.404 8.18978 13.1577C6.95855 11.9113 6.26685 10.2209 6.26685 8.45835Z" fill="#464646"/>
<path d="M0 28.0938C0 28.3341 0.0943224 28.5646 0.262217 28.7346C0.430112 28.9045 0.657826 29 0.895266 29C1.1327 29 1.36042 28.9045 1.52831 28.7346C1.69621 28.5646 1.79053 28.3341 1.79053 28.0938C1.79448 25.1307 2.95906 22.29 5.0289 20.1948C7.09875 18.0996 9.90493 16.9207 12.8321 16.9167C11.3858 16.9201 9.96458 16.5343 8.71392 15.799C6.17832 16.6758 3.9761 18.3316 2.41413 20.5354C0.852162 22.7392 0.00825268 25.3814 0 28.0938H0Z" fill="#464646"/>
<path d="M21.7549 20.6172C21.9937 20.2698 22.2921 19.9526 22.5607 19.6354C21.0583 17.8773 19.1225 16.5536 16.9504 15.799C15.6997 16.5343 14.2785 16.9201 12.8321 16.9167C15.7593 16.9207 18.5655 18.0996 20.6354 20.1948C22.7052 22.29 23.8698 25.1307 23.8737 28.0938C23.8737 28.3341 23.9681 28.5646 24.136 28.7346C24.3039 28.9045 24.5316 29 24.769 29C25.0064 29 25.2342 28.9045 25.4021 28.7346C25.57 28.5646 25.6643 28.3341 25.6643 28.0938C25.66 25.6287 24.9556 23.2169 23.635 21.1459C23.4858 21.3573 23.3067 21.5537 23.1575 21.7651C22.7544 21.3082 22.2807 20.9206 21.7549 20.6172Z" fill="#464646"/>
<path d="M12.8321 15.1042C11.4312 15.1077 10.0402 15.3424 8.71391 15.799C9.96601 16.5307 11.3863 16.916 12.8321 16.916C14.2779 16.916 15.6983 16.5307 16.9504 15.799C15.624 15.3424 14.233 15.1077 12.8321 15.1042Z" fill="#464646"/>
<path d="M25.6643 8.45835C25.6643 7.14393 26.0493 5.85902 26.7707 4.76612C27.4921 3.67322 28.5175 2.82141 29.7171 2.3184C30.9168 1.81539 32.2368 1.68378 33.5104 1.94021C34.7839 2.19664 35.9537 2.8296 36.8719 3.75903C37.7901 4.68847 38.4154 5.87264 38.6687 7.16181C38.922 8.45098 38.792 9.78723 38.2951 11.0016C37.7982 12.216 36.9567 13.2539 35.877 13.9842C34.7974 14.7144 33.5281 15.1042 32.2296 15.1042C33.6305 15.1077 35.0215 15.3424 36.3478 15.799C37.9534 14.8784 39.2128 13.4456 39.9294 11.7243C40.6461 10.003 40.7797 8.09 40.3095 6.28374C39.8392 4.47749 38.7915 2.87962 37.3299 1.73945C35.8682 0.599282 34.0749 -0.019043 32.2296 -0.019043C30.3843 -0.019043 28.5909 0.599282 27.1292 1.73945C25.6676 2.87962 24.6199 4.47749 24.1496 6.28374C23.6794 8.09 23.813 10.003 24.5297 11.7243C25.2463 13.4456 26.5057 14.8784 28.1113 15.799C29.4377 15.3424 30.8286 15.1077 32.2296 15.1042C30.4883 15.1042 28.8184 14.404 27.5872 13.1577C26.356 11.9113 25.6643 10.2209 25.6643 8.45835Z" fill="#464646"/>
<path d="M36.3478 15.799C35.0971 16.5343 33.6759 16.9201 32.2296 16.9167C35.1568 16.9207 37.9629 18.0996 40.0328 20.1948C42.1026 22.29 43.2672 25.1307 43.2712 28.0938C43.2712 28.3341 43.3655 28.5646 43.5334 28.7346C43.7013 28.9045 43.929 29 44.1664 29C44.4039 29 44.6316 28.9045 44.7995 28.7346C44.9674 28.5646 45.0617 28.3341 45.0617 28.0938C45.0534 25.3814 44.2095 22.7392 42.6476 20.5354C41.0856 18.3316 38.8834 16.6758 36.3478 15.799Z" fill="#464646"/>
<path d="M32.2296 15.1042C30.8286 15.1077 29.4377 15.3424 28.1113 15.799C29.3634 16.5307 30.7838 16.916 32.2296 16.916C33.6753 16.916 35.0957 16.5307 36.3478 15.799C35.0214 15.3424 33.6305 15.1077 32.2296 15.1042Z" fill="#464646"/>
<path d="M22.5607 19.6354C22.9495 20.1158 23.3083 20.6202 23.635 21.1459C24.6617 19.8327 25.9675 18.7705 27.4555 18.0383C28.9434 17.3062 30.5752 16.9228 32.2295 16.9167C30.7832 16.9201 29.362 16.5343 28.1113 15.799C25.9576 16.5565 24.0418 17.8807 22.5607 19.6354Z" fill="#464646"/>
<path d="M21.7549 20.6172C22.2785 20.9114 22.7521 21.2888 23.1575 21.7349C23.3067 21.5235 23.4858 21.3271 23.635 21.1156C23.3083 20.59 22.9495 20.0856 22.5607 19.6052C22.2921 19.9526 21.9937 20.2698 21.7549 20.6172Z" fill="#464646"/>
<path d="M47.5237 17.8984C47.5237 18.0987 47.6023 18.2908 47.7422 18.4324C47.8821 18.5741 48.0719 18.6536 48.2697 18.6536C48.4676 18.6536 48.6574 18.5741 48.7973 18.4324C48.9372 18.2908 49.0158 18.0987 49.0158 17.8984V15.6328H47.5237V17.8984Z" fill="#464646"/>
<path d="M49.0158 11.8568C49.0158 11.6565 48.9372 11.4644 48.7973 11.3228C48.6574 11.1811 48.4676 11.1016 48.2697 11.1016C48.0719 11.1016 47.8821 11.1811 47.7422 11.3228C47.6023 11.4644 47.5237 11.6565 47.5237 11.8568V14.1224H49.0158V11.8568Z" fill="#464646"/>
<path d="M45.2855 14.1224C45.0876 14.1224 44.8979 14.202 44.758 14.3436C44.6181 14.4852 44.5395 14.6773 44.5395 14.8776C44.5395 15.0779 44.6181 15.27 44.758 15.4116C44.8979 15.5533 45.0876 15.6328 45.2855 15.6328H47.5237V14.1224H45.2855Z" fill="#464646"/>
<path d="M51.2539 14.1224H49.0158V15.6328H51.2539C51.4518 15.6328 51.6416 15.5533 51.7815 15.4116C51.9214 15.27 52 15.0779 52 14.8776C52 14.6773 51.9214 14.4852 51.7815 14.3436C51.6416 14.202 51.4518 14.1224 51.2539 14.1224Z" fill="#464646"/>
<path d="M49.0158 14.1224H47.5237V15.6328H49.0158V14.1224Z" fill="#464646"/>
</g>
<defs>
<clipPath id="clip0">
<rect width="52" height="29" fill="white"/>
</clipPath>
</defs>
</svg>
