<svg width="26" height="29" viewBox="0 0 26 29" fill="none" xmlns="http://www.w3.org/2000/svg">
<g clip-path="url(#clip0)">
<path d="M6.34884 8.45835C6.34884 7.14393 6.73892 5.85902 7.46976 4.76612C8.2006 3.67322 9.23937 2.82141 10.4547 2.3184C11.6701 1.81539 13.0074 1.68378 14.2976 1.94021C15.5878 2.19664 16.7729 2.8296 17.7031 3.75903C18.6333 4.68847 19.2667 5.87264 19.5234 7.16181C19.78 8.45098 19.6483 9.78723 19.1449 11.0016C18.6415 12.216 17.789 13.2539 16.6952 13.9842C15.6014 14.7144 14.3155 15.1042 13 15.1042C14.4192 15.1077 15.8284 15.3424 17.1721 15.799C18.7987 14.8784 20.0746 13.4456 20.8006 11.7243C21.5266 10.003 21.662 8.09 21.1856 6.28374C20.7092 4.47749 19.6478 2.87962 18.167 1.73945C16.6863 0.599282 14.8694 -0.019043 13 -0.019043C11.1306 -0.019043 9.31373 0.599282 7.83296 1.73945C6.35219 2.87962 5.29079 4.47749 4.81438 6.28374C4.33797 8.09 4.47335 10.003 5.19939 11.7243C5.92544 13.4456 7.2013 14.8784 8.82791 15.799C10.1716 15.3424 11.5808 15.1077 13 15.1042C11.236 15.1042 9.54425 14.404 8.29692 13.1577C7.04958 11.9113 6.34884 10.2209 6.34884 8.45835Z" fill="#464646"/>
<path d="M0 28.0938C0 28.3341 0.0955562 28.5646 0.265647 28.7346C0.435738 28.9045 0.666432 29 0.906977 29C1.14752 29 1.37821 28.9045 1.54831 28.7346C1.7184 28.5646 1.81395 28.3341 1.81395 28.0938C1.81795 25.1307 2.99776 22.29 5.09469 20.1948C7.19161 18.0996 10.0345 16.9207 13 16.9167C11.5348 16.9201 10.0949 16.5343 8.82791 15.799C6.25914 16.6758 4.02811 18.3316 2.44571 20.5354C0.863309 22.7392 0.00836063 25.3814 0 28.0938H0Z" fill="#464646"/>
<path d="M17.1721 15.799C15.9051 16.5343 14.4652 16.9201 13 16.9167C15.9655 16.9207 18.8084 18.0996 20.9053 20.1948C23.0022 22.29 24.182 25.1307 24.186 28.0938C24.186 28.3341 24.2816 28.5646 24.4517 28.7346C24.6218 28.9045 24.8525 29 25.093 29C25.3336 29 25.5643 28.9045 25.7344 28.7346C25.9044 28.5646 26 28.3341 26 28.0938C25.9916 25.3814 25.1367 22.7392 23.5543 20.5354C21.9719 18.3316 19.7409 16.6758 17.1721 15.799Z" fill="#464646"/>
<path d="M13 15.1042C11.5808 15.1077 10.1716 15.3424 8.8279 15.799C10.0964 16.5307 11.5353 16.916 13 16.916C14.4647 16.916 15.9036 16.5307 17.1721 15.799C15.8284 15.3424 14.4192 15.1077 13 15.1042Z" fill="#464646"/>
</g>
<defs>
<clipPath id="clip0">
<rect width="26" height="29" fill="white"/>
</clipPath>
</defs>
</svg>
