<svg width="45" height="29" viewBox="0 0 45 29" fill="none" xmlns="http://www.w3.org/2000/svg">
<g clip-path="url(#clip0)">
<path d="M6.25828 8.45835C6.25828 7.14393 6.6428 5.85902 7.36322 4.76612C8.08363 3.67322 9.10758 2.82141 10.3056 2.3184C11.5036 1.81539 12.8218 1.68378 14.0936 1.94021C15.3654 2.19664 16.5337 2.8296 17.4506 3.75903C18.3675 4.68847 18.9919 5.87264 19.2449 7.16181C19.4979 8.45098 19.368 9.78723 18.8718 11.0016C18.3756 12.216 17.5352 13.2539 16.4571 13.9842C15.3789 14.7144 14.1113 15.1042 12.8146 15.1042C14.2136 15.1077 15.6026 15.3424 16.9272 15.799C18.5306 14.8784 19.7882 13.4456 20.5039 11.7243C21.2196 10.003 21.353 8.09 20.8834 6.28374C20.4138 4.47749 19.3676 2.87962 17.9079 1.73945C16.4483 0.599282 14.6573 -0.019043 12.8146 -0.019043C10.9718 -0.019043 9.18088 0.599282 7.72124 1.73945C6.26159 2.87962 5.21533 4.47749 4.74571 6.28374C4.2761 8.09 4.40955 10.003 5.12523 11.7243C5.84092 13.4456 7.09859 14.8784 8.70199 15.799C10.0265 15.3424 11.4156 15.1077 12.8146 15.1042C11.0757 15.1042 9.40812 14.404 8.17858 13.1577C6.94903 11.9113 6.25828 10.2209 6.25828 8.45835Z" fill="#464646"/>
<path d="M0 28.0938C0 28.3341 0.0941932 28.5646 0.261858 28.7346C0.429523 28.9045 0.656926 29 0.89404 29C1.13115 29 1.35856 28.9045 1.52622 28.7346C1.69389 28.5646 1.78808 28.3341 1.78808 28.0938C1.79202 25.1307 2.955 22.29 5.02202 20.1948C7.08903 18.0996 9.89137 16.9207 12.8146 16.9167C11.3702 16.9201 9.95094 16.5343 8.70199 15.799C6.16986 16.6758 3.97066 18.3316 2.41083 20.5354C0.850995 22.7392 0.00824138 25.3814 0 28.0938H0Z" fill="#464646"/>
<path d="M21.7252 20.6172C21.9636 20.2698 22.2616 19.9526 22.5298 19.6354C21.0294 17.8773 19.0963 16.5536 16.9272 15.799C15.6782 16.5343 14.2589 16.9201 12.8146 16.9167C15.7378 16.9207 18.5401 18.0996 20.6071 20.1948C22.6741 22.29 23.8371 25.1307 23.8411 28.0938C23.8411 28.3341 23.9353 28.5646 24.1029 28.7346C24.2706 28.9045 24.498 29 24.7351 29C24.9722 29 25.1996 28.9045 25.3673 28.7346C25.535 28.5646 25.6291 28.3341 25.6291 28.0938C25.6249 25.6287 24.9214 23.2169 23.6027 21.1459C23.4536 21.3573 23.2748 21.5537 23.1258 21.7651C22.7233 21.3082 22.2502 20.9206 21.7252 20.6172Z" fill="#464646"/>
<path d="M12.8146 15.1042C11.4156 15.1077 10.0265 15.3424 8.70198 15.799C9.95236 16.5307 11.3707 16.916 12.8146 16.916C14.2584 16.916 15.6768 16.5307 16.9271 15.799C15.6026 15.3424 14.2136 15.1077 12.8146 15.1042Z" fill="#464646"/>
<path d="M25.6291 8.45835C25.6291 7.14393 26.0137 5.85902 26.7341 4.76612C27.4545 3.67322 28.4784 2.82141 29.6765 2.3184C30.8745 1.81539 32.1927 1.68378 33.4645 1.94021C34.7363 2.19664 35.9045 2.8296 36.8214 3.75903C37.7384 4.68847 38.3628 5.87264 38.6158 7.16181C38.8687 8.45098 38.7389 9.78723 38.2427 11.0016C37.7464 12.216 36.9061 13.2539 35.8279 13.9842C34.7497 14.7144 33.4822 15.1042 32.1854 15.1042C33.5844 15.1077 34.9735 15.3424 36.298 15.799C37.9014 14.8784 39.1591 13.4456 39.8748 11.7243C40.5905 10.003 40.7239 8.09 40.2543 6.28374C39.7847 4.47749 38.7384 2.87962 37.2788 1.73945C35.8191 0.599282 34.0282 -0.019043 32.1854 -0.019043C30.3427 -0.019043 28.5518 0.599282 27.0921 1.73945C25.6325 2.87962 24.5862 4.47749 24.1166 6.28374C23.647 8.09 23.7804 10.003 24.4961 11.7243C25.2118 13.4456 26.4695 14.8784 28.0729 15.799C29.3974 15.3424 30.7864 15.1077 32.1854 15.1042C30.4466 15.1042 28.779 14.404 27.5494 13.1577C26.3199 11.9113 25.6291 10.2209 25.6291 8.45835Z" fill="#464646"/>
<path d="M36.298 15.799C35.0491 16.5343 33.6298 16.9201 32.1854 16.9167C35.1086 16.9207 37.911 18.0996 39.978 20.1948C42.045 22.29 43.208 25.1307 43.2119 28.0938C43.2119 28.3341 43.3061 28.5646 43.4738 28.7346C43.6414 28.9045 43.8688 29 44.106 29C44.3431 29 44.5705 28.9045 44.7381 28.7346C44.9058 28.5646 45 28.3341 45 28.0938C44.9918 25.3814 44.149 22.7392 42.5892 20.5354C41.0293 18.3316 38.8301 16.6758 36.298 15.799Z" fill="#464646"/>
<path d="M32.1854 15.1042C30.7864 15.1077 29.3974 15.3424 28.0728 15.799C29.3232 16.5307 30.7416 16.916 32.1854 16.916C33.6292 16.916 35.0476 16.5307 36.298 15.799C34.9735 15.3424 33.5844 15.1077 32.1854 15.1042Z" fill="#464646"/>
<path d="M22.5298 19.6354C22.9181 20.1158 23.2764 20.6202 23.6026 21.1459C24.628 19.8327 25.932 18.7705 27.4179 18.0383C28.9038 17.3062 30.5333 16.9228 32.1854 16.9167C30.7411 16.9201 29.3218 16.5343 28.0728 15.799C25.922 16.5565 24.0089 17.8807 22.5298 19.6354Z" fill="#464646"/>
<path d="M21.7252 20.6172C22.248 20.9114 22.7209 21.2888 23.1258 21.7349C23.2748 21.5235 23.4536 21.3271 23.6026 21.1156C23.2764 20.59 22.9181 20.0856 22.5298 19.6052C22.2616 19.9526 21.9636 20.2698 21.7252 20.6172Z" fill="#464646"/>
</g>
<defs>
<clipPath id="clip0">
<rect width="45" height="29" fill="white"/>
</clipPath>
</defs>
</svg>
