<svg width="26" height="34" viewBox="0 0 26 34" fill="none" xmlns="http://www.w3.org/2000/svg">
<g id="Reglas">
<path id="Shape" d="M5.08889 12.5555H11.6667C12.0222 12.5555 12.3778 12.2 12.3778 11.8444C12.3778 11.4889 12.0222 11.3111 11.6667 11.3111H5.08889C4.73333 11.3111 4.37778 11.6667 4.37778 12.0222C4.37778 12.3778 4.73333 12.5555 5.08889 12.5555Z" fill="#464646"/>
<path id="Shape_1_" d="M25 11.3111C24.6444 11.3111 24.2889 11.6667 24.2889 12.0222V31.7556H2.42222V2.42222H17.5333C17.8889 2.42222 18.2444 2.6 18.4222 2.77778L23.4 7.93333H18.9556V5.08889C18.9556 4.73333 18.6 4.37778 18.2444 4.37778C17.8889 4.37778 17.5333 4.73333 17.5333 5.08889V8.28889C17.5333 8.82222 18.0667 9.35556 18.6 9.35556H24.1111C24.4667 9.35556 24.8222 9.17778 25 8.64444C25.1778 8.28889 25 7.75556 24.8222 7.57778L19.3111 1.88889C18.7778 1.35556 18.0667 1 17.3556 1H2.06667C1.53333 1 1 1.53333 1 2.06667V31.9333C1 32.4667 1.53333 33 2.06667 33H24.4667C25 33 25.5333 32.4667 25.5333 31.9333V11.8444C25.7111 11.4889 25.3556 11.3111 25 11.3111Z" fill="#464646" stroke="#464646" stroke-width="0.3"/>
<path id="Shape_2_" d="M5.08889 28.2C4.73333 28.2 4.37778 28.5556 4.37778 28.9111C4.37778 29.2667 4.73333 29.6222 5.08889 29.6222H11.6667C12.0222 29.6222 12.3778 29.2667 12.3778 28.9111C12.3778 28.5556 12.0222 28.2 11.6667 28.2H5.08889Z" fill="#464646"/>
<path id="Shape_3_" d="M22.1556 25.5333C22.1556 25.1778 21.8 24.8222 21.4444 24.8222H5.08889C4.73333 24.8222 4.37778 25.1778 4.37778 25.5333C4.37778 25.8889 4.73333 26.2444 5.08889 26.2444H21.6222C21.9778 26.0667 22.1556 25.8889 22.1556 25.5333Z" fill="#464646"/>
<path id="Shape_4_" d="M21.6222 14.5111H5.08889C4.73333 14.5111 4.37778 14.8667 4.37778 15.2222C4.37778 15.5778 4.73333 15.9333 5.08889 15.9333H21.6222C21.9778 15.9333 22.3333 15.5778 22.3333 15.2222C22.1556 14.8667 21.9778 14.5111 21.6222 14.5111Z" fill="#464646"/>
<path id="Shape_5_" d="M21.6222 18.0667H5.08889C4.73333 18.0667 4.37778 18.4222 4.37778 18.7778C4.37778 19.1333 4.73333 19.4889 5.08889 19.4889H21.6222C21.9778 19.4889 22.3333 19.1333 22.3333 18.7778C22.1556 18.4222 21.9778 18.0667 21.6222 18.0667Z" fill="#464646"/>
<path id="Shape_6_" d="M21.6222 21.4444H5.08889C4.73333 21.4444 4.37778 21.8 4.37778 22.1556C4.37778 22.5111 4.73333 22.8667 5.08889 22.8667H21.6222C21.9778 22.8667 22.3333 22.5111 22.3333 22.1556C22.1556 21.8 21.9778 21.4444 21.6222 21.4444Z" fill="#464646"/>
</g>
</svg>
